<?xml version="1.0" encoding="utf-8"?>
<!-- Generator: Adobe Illustrator 23.1.1, SVG Export Plug-In . SVG Version: 6.00 Build 0)  -->
<svg version="1.1" id="Layer_1" xmlns="http://www.w3.org/2000/svg" xmlns:xlink="http://www.w3.org/1999/xlink" x="0px" y="0px"
	 viewBox="0 0 100 100" style="enable-background:new 0 0 100 100;" xml:space="preserve">
<style type="text/css">
	.st0{display:none;}
	.st1{display:inline;fill:#EE3023;}
	.st2{display:inline;fill:#FFFFFF;}
	.st3{fill:#005EB8;}
	.st4{fill-rule:evenodd;clip-rule:evenodd;fill:#D9261C;}
	.st5{display:inline;fill-rule:evenodd;clip-rule:evenodd;fill:#FFFFFF;}
	.st6{fill:#231F20;}
</style>
<g id="g3721" transform="matrix(0.27560986,0,0,0.27560986,0.63625548,139.7108)" class="st0">
	<path id="path2333-2" class="st1" d="M-4.78-325.5c0,49.42-40.05,89.48-89.46,89.48s-89.48-40.06-89.48-89.48
		c0-49.42,40.06-89.48,89.48-89.48S-4.78-374.92-4.78-325.5"/>
	<path id="path2337-8" class="st2" d="M-93.54-275.6c-24.58,0.08-50.16-20.89-50.27-54.6c-0.08-22.28,11.95-43.73,27.31-56.45
		c14.99-12.4,35.53-20.37,54.14-20.43c2.4,0,4.92,0.2,6.44,0.72C-72.2-403-85.15-387.84-85.1-370.66c0,0.58,0.05,1.18,0.11,1.46
		c27.24,6.64,39.6,23.08,39.69,45.82C-45.24-300.63-63.19-275.7-93.54-275.6"/>
	<path id="path2339-2" class="st1" d="M53.01-288.44l-27.36-65.28h17.87l17.06,43.35l16.54-43.35h17.06l-26.55,65.28H53.01z"/>
	<path id="path2341-0" class="st1" d="M141.8-321.42c0-2.71-0.31-5.29-0.95-7.74c-0.62-2.45-1.58-4.55-2.84-6.31
		c-1.27-1.78-2.79-3.17-4.6-4.21c-1.81-1.05-3.93-1.58-6.36-1.58s-4.57,0.53-6.36,1.58c-1.81,1.04-3.35,2.43-4.6,4.21
		c-1.27,1.76-2.22,3.86-2.84,6.31c-0.64,2.45-0.95,5.03-0.95,7.74c0,2.81,0.31,5.42,0.95,7.83c0.62,2.4,1.55,4.5,2.76,6.31
		c1.22,1.81,2.76,3.24,4.62,4.29c1.84,1.04,3.99,1.56,6.43,1.56c2.43,0,4.55-0.53,6.36-1.56c1.81-1.05,3.34-2.48,4.6-4.29
		c1.27-1.81,2.22-3.91,2.84-6.31C141.49-316,141.8-318.61,141.8-321.42 M158.32-321.35c0,4.26-0.66,8.43-1.96,12.54
		c-1.32,4.11-3.26,7.78-5.84,11.03c-2.56,3.26-5.82,5.87-9.75,7.86c-3.93,1.99-8.52,2.98-13.74,2.98c-5.24,0-9.83-0.99-13.74-2.98
		c-3.93-1.99-7.18-4.6-9.77-7.86c-2.56-3.26-4.5-6.92-5.82-11.03c-1.3-4.11-1.96-8.29-1.96-12.54c0-4.24,0.66-8.38,1.96-12.46
		c1.32-4.06,3.26-7.69,5.82-10.9c2.58-3.21,5.84-5.77,9.77-7.71c3.91-1.94,8.5-2.93,13.74-2.93c5.23,0,9.8,0.99,13.68,2.93
		c3.88,1.94,7.13,4.5,9.75,7.71c2.63,3.21,4.59,6.84,5.9,10.9C157.66-329.73,158.32-325.59,158.32-321.35"/>
	<path id="path2343-6" class="st1" d="M208.77-339.36c-3.24-1.27-6.25-1.91-9.04-1.91c-2.86,0-5.34,0.56-7.4,1.64
		c-2.07,1.08-3.78,2.55-5.13,4.41c-1.35,1.86-2.35,3.95-3.02,6.26c-0.67,2.3-1.02,4.69-1.02,7.13c0,2.71,0.3,5.31,0.89,7.81
		c0.58,2.48,1.48,4.67,2.7,6.53c1.2,1.86,2.73,3.35,4.57,4.49c1.84,1.12,4.03,1.69,6.54,1.69c2.07,0,4.18-0.58,6.33-1.69
		c2.15-1.13,3.68-2.48,4.59-4.01L208.77-339.36z M210.12-288.44l-0.67-5c-1.53,1.71-3.55,3.22-6.08,4.52
		c-2.52,1.32-5.49,1.97-8.91,1.97c-4.49,0-8.47-0.95-11.87-2.84c-3.44-1.89-6.31-4.42-8.65-7.58c-2.33-3.16-4.13-6.82-5.34-10.98
		c-1.2-4.14-1.81-8.48-1.81-13c0-4.24,0.62-8.4,1.87-12.46c1.27-4.06,3.17-7.69,5.74-10.9c2.58-3.21,5.79-5.77,9.67-7.71
		c3.86-1.94,8.42-2.93,13.63-2.93c3.42,0,7.12,0.64,11.08,1.89v-25.32h16.78v90.34L210.12-288.44z"/>
	<path id="path2345-7" class="st1" d="M272.84-319.05c-1.81,0.1-3.68,0.26-5.59,0.48c-1.91,0.23-3.72,0.53-5.44,0.89
		c-3.65,0.72-6.16,1.96-7.58,3.72c-1.4,1.78-2.1,3.68-2.1,5.77c0,2.15,0.79,3.9,2.38,5.21c1.59,1.3,3.83,1.96,6.74,1.96
		c2.19,0,4.31-0.44,6.35-1.35c2.04-0.9,3.8-2.04,5.24-3.39L272.84-319.05z M274.19-288.49l-0.66-4.88
		c-1.82,2.01-4.13,3.58-6.94,4.72c-2.81,1.13-5.89,1.71-9.24,1.71c-2.81,0-5.52-0.48-8.09-1.43c-2.6-0.94-4.88-2.3-6.87-4.06
		c-1.99-1.76-3.6-3.91-4.82-6.49c-1.23-2.58-1.84-5.49-1.84-8.75c0-3.24,0.62-6.12,1.91-8.6c1.27-2.48,2.98-4.57,5.16-6.3
		c2.17-1.71,4.67-3.11,7.48-4.19c2.79-1.08,5.75-1.91,8.83-2.45c2.17-0.44,4.55-0.77,7.13-1c2.58-0.23,4.73-0.43,6.46-0.61v-0.95
		c0-3.62-0.92-6.18-2.79-7.73c-1.86-1.53-4.42-2.3-7.68-2.3c-1.91,0-3.73,0.23-5.46,0.69c-1.73,0.44-3.26,1-4.62,1.68
		c-1.36,0.69-2.56,1.36-3.62,2.04c-1.04,0.67-1.87,1.28-2.52,1.82l-5.56-11.77c0.72-0.64,1.82-1.4,3.32-2.3
		c1.5-0.9,3.29-1.79,5.43-2.65c2.12-0.86,4.5-1.58,7.17-2.17c2.66-0.59,5.54-0.89,8.6-0.89c3.62,0,6.92,0.48,9.9,1.43
		c2.98,0.95,5.56,2.43,7.73,4.47c2.15,2.02,3.85,4.59,5.08,7.71c1.22,3.11,1.82,6.87,1.82,11.29v41.95L274.19-288.49z"/>
	<path id="path2347-3" class="st1" d="M341.39-363.89c-0.54-0.26-1.59-0.66-3.17-1.15c-1.59-0.49-3.68-0.74-6.31-0.74
		c-2.33,0-4.31,0.71-5.89,2.1c-1.58,1.4-2.37,3.68-2.37,6.84v3.11h14.09v13.55h-13.96v51.74h-16.8v-51.74h-8.66v-13.55h8.66v-3.52
		c0-4.24,0.54-7.83,1.63-10.77c1.08-2.93,2.6-5.33,4.54-7.17c1.94-1.86,4.22-3.22,6.84-4.08c2.63-0.86,5.47-1.28,8.55-1.28
		c4.06,0,7.41,0.38,10.08,1.15c2.66,0.77,4.23,1.28,4.67,1.56L341.39-363.89z"/>
	<path id="path2349-9" class="st1" d="M387.18-321.42c0-2.71-0.33-5.29-0.95-7.74c-0.62-2.45-1.58-4.55-2.84-6.31
		c-1.27-1.78-2.79-3.17-4.6-4.21c-1.81-1.05-3.93-1.58-6.36-1.58c-2.43,0-4.57,0.53-6.36,1.58c-1.81,1.04-3.35,2.43-4.62,4.21
		c-1.25,1.76-2.2,3.86-2.84,6.31c-0.62,2.45-0.94,5.03-0.94,7.74c0,2.81,0.31,5.42,0.94,7.83c0.64,2.4,1.56,4.5,2.78,6.31
		c1.22,1.81,2.76,3.24,4.6,4.29c1.86,1.04,4.01,1.56,6.44,1.56c2.43,0,4.55-0.53,6.36-1.56c1.81-1.05,3.34-2.48,4.6-4.29
		c1.27-1.81,2.22-3.91,2.84-6.31C386.85-316,387.18-318.61,387.18-321.42 M403.7-321.35c0,4.26-0.66,8.43-1.97,12.54
		c-1.3,4.11-3.24,7.78-5.82,11.03c-2.56,3.26-5.82,5.87-9.75,7.86c-3.93,1.99-8.52,2.98-13.74,2.98c-5.24,0-9.83-0.99-13.74-2.98
		c-3.93-1.99-7.18-4.6-9.77-7.86c-2.56-3.26-4.5-6.92-5.82-11.03c-1.32-4.11-1.96-8.29-1.96-12.54c0-4.24,0.64-8.38,1.96-12.46
		c1.32-4.06,3.26-7.69,5.82-10.9c2.58-3.21,5.84-5.77,9.77-7.71c3.91-1.94,8.5-2.93,13.74-2.93c5.23,0,9.8,0.99,13.68,2.93
		c3.88,1.94,7.13,4.5,9.75,7.71c2.63,3.21,4.59,6.84,5.89,10.9C403.04-329.73,403.7-325.59,403.7-321.35"/>
	<path id="path2351-6" class="st1" d="M455.83-288.44v-37.24c0-4.96-1.04-8.81-3.11-11.52c-2.09-2.7-4.96-4.06-8.68-4.06
		c-2.61,0-5.03,0.67-7.23,2.04c-2.22,1.35-4.14,2.84-5.77,4.47v46.31h-16.78v-65.28h15.31l0.81,5.15c2.63-2.15,5.57-3.83,8.88-5
		c3.29-1.18,6.61-1.76,9.95-1.76c3.44,0,6.59,0.51,9.49,1.55c2.89,1.05,5.38,2.7,7.45,4.95c2.09,2.25,3.68,5.19,4.82,8.8
		c1.12,3.62,1.69,7.96,1.69,13v38.6L455.83-288.44z"/>
	<path id="path2353-4" class="st1" d="M524.87-328.93c-0.18-2.25-0.66-4.23-1.43-5.89c-0.77-1.68-1.73-3.02-2.86-4.06
		c-1.13-1.05-2.35-1.81-3.67-2.32c-1.33-0.49-2.66-0.74-4.03-0.74c-2.91,0-5.67,1.08-8.3,3.25c-2.63,2.17-4.18,5.41-4.64,9.75
		H524.87z M499.56-316.88c0.36,5.51,2.07,9.49,5.16,11.92c3.07,2.43,7.07,3.67,11.95,3.67c2.27,0,4.41-0.21,6.4-0.61
		c1.99-0.41,3.76-0.92,5.31-1.56c1.55-0.63,2.86-1.27,3.95-1.89c1.09-0.64,1.89-1.23,2.45-1.78l4.47,13.69
		c-0.64,0.44-1.66,1.05-3.06,1.82c-1.4,0.77-3.14,1.48-5.21,2.17c-2.07,0.67-4.52,1.25-7.32,1.76c-2.79,0.49-5.87,0.74-9.21,0.74
		c-4.26,0-8.29-0.67-12.13-2.02c-3.83-1.36-7.2-3.47-10.08-6.31c-2.89-2.84-5.19-6.38-6.9-10.62c-1.73-4.24-2.58-9.3-2.58-15.17
		c0-5.51,0.79-10.39,2.37-14.63c1.58-4.24,3.75-7.81,6.49-10.7c2.76-2.88,5.97-5.1,9.62-6.64c3.67-1.53,7.56-2.3,11.72-2.3
		c4.16,0,7.99,0.69,11.52,2.04c3.52,1.35,6.56,3.45,9.14,6.3c2.56,2.84,4.6,6.53,6.08,11.05c1.5,4.5,2.24,9.88,2.24,16.11v2.98
		H499.56z"/>
</g>
<g transform="scale(3.75)" class="st0">
	<path class="st2" d="M4.03,9.52h2.54l1.56,5.29h0.02l1.07-5.29h1.92l-1.62,7.62H7l-1.6-5.27H5.39l-1.06,5.27H2.41L4.03,9.52z"/>
	<path class="st2" d="M11.9,9.52h2.04l-0.6,2.92h2.41l0.6-2.92h2.04l-1.58,7.62h-2.05l0.68-3.26h-2.4l-0.68,3.26h-2.04L11.9,9.52z"
		/>
	<path class="st2" d="M23.77,11.25c-0.52-0.24-1.09-0.36-1.67-0.35c-0.81,0-1.46,0.12-1.46,0.73c0,1.08,2.96,0.68,2.96,2.99
		c0,2.11-1.96,2.65-3.72,2.65c-0.8-0.02-1.6-0.15-2.37-0.39l0.47-1.55c0.4,0.26,1.21,0.44,1.88,0.44c0.67,0,1.63-0.12,1.63-0.91
		c0-1.22-2.96-0.76-2.96-2.92c0-1.96,1.73-2.56,3.4-2.56c0.95,0,1.82,0.1,2.34,0.34L23.77,11.25z"/>
	<rect x="-13.43" y="2.52" class="st3" width="53.43" height="21.63"/>
</g>
<g id="Illy" transform="translate(-172.90992,-237.69111)" class="st0">
	<path id="path303" class="st4" d="M202.75,267.56h40.32v40.32h-40.32V267.56z"/>
	<path id="path305" class="st5" d="M223.08,274.5c0.48,0.66,0.85,1.52,0.55,2.35c-2.23,4.45-4.1,9.03-5.92,13.65
		c-0.67,1.83-0.99,3.82-1.94,5.55c-0.12,0.19-0.35,0.47-0.57,0.42c-0.61-0.1-1.21-0.31-1.59-0.87c-1.19-2.54,0.1-5.35,0.8-7.77
		c1.52-4.24,3.2-8.41,5.38-12.39c0.47-0.67,0.88-1.44,1.59-1.94c0.22-0.12,0.54-0.09,0.78-0.05L223.08,274.5z"/>
	<path id="path307" class="st5" d="M229.54,274.9c0.35,0.36,0.67,0.74,0.81,1.18c0.09,1.02-0.17,1.8-0.54,2.61
		c-1.92,3.82-3.53,7.77-5.07,11.75c-0.74,2.06-1.3,4.2-2.27,6.18c-0.52,0.22-1.09-0.05-1.52-0.38c-0.54-0.5-1.04-1.12-1.16-1.83
		c0.29-3.91,1.57-7.42,3.03-10.85c1.37-3.2,2.87-6.37,4.97-9.24C228.5,273.84,229.02,274.57,229.54,274.9"/>
	<path id="path309" class="st5" d="M216.87,274.67c0.47,1,0.17,2.27-0.47,3.08c-0.57,0.64-1.16,1.33-1.87,1.83
		c-0.47,0.1-0.99-0.02-1.35-0.35c-0.61-0.61-0.62-1.56-0.36-2.34c0.5-1.32,1.78-2.53,3.2-2.7
		C216.37,274.24,216.72,274.34,216.87,274.67"/>
	<path id="path311" class="st5" d="M214.1,281.96c-0.16,1.56-0.78,2.96-1.21,4.43c-1.04,2.63-1.97,5.29-2.65,8.08
		c-0.22,0.66-0.38,1.37-0.85,1.92c-0.69-0.02-1.71,0.22-2.15-0.5c-1.35-2.11-0.05-4.52,0.54-6.56c0.73-2.22,1.45-4.45,2.58-6.51
		c0.54-0.87,1.33-1.97,2.49-1.92C213.41,280.99,213.89,281.47,214.1,281.96"/>
	<path id="path313" class="st5" d="M233.85,284.16c0.24,0.95-0.45,1.66-0.85,2.41c-1.11,1.4-1.82,2.98-2.77,4.45
		c-0.19,0.38-0.4,0.76-0.35,1.25c0.5,0.48,1-0.31,1.47-0.55c2.44-2.3,4.07-5.12,5.62-7.87c0.26-0.26,0.54-0.57,0.9-0.57
		c0.64,0.5,1.35,1.06,1.75,1.77c0.1,0.9-0.35,1.7-0.57,2.53c-1.28,3.32-2.98,6.7-6.16,9.03c-2.6,2.2-5.33,4.08-8.32,5.36
		c-0.45,0.05-1.04,0.12-1.37-0.23l0.03-0.12c2.32-1.42,4.46-3.25,6.63-5.12c0.42-0.5,1.06-0.97,1.32-1.56
		c-0.5,0.14-1.02,0.42-1.54,0.59c-0.59,0.1-1.37,0.47-1.9-0.02c-0.8-0.74-1.61-1.56-1.7-2.65c0.57-3.63,2.42-6.73,4.4-9.79
		c0.35-0.36,0.59-1.02,1.16-1.09C232.65,282.22,233.31,283.29,233.85,284.16"/>
	<path id="path315" class="st5" d="M237.1,298.27c0.66,0,1.19-0.53,1.19-1.19c0-0.65-0.53-1.19-1.19-1.19
		c-0.66,0-1.19,0.53-1.19,1.19C235.91,297.74,236.44,298.27,237.1,298.27z M237.1,298.13c-0.58,0-1.05-0.47-1.05-1.05
		c0-0.58,0.47-1.04,1.05-1.04c0.58,0,1.04,0.47,1.04,1.04C238.15,297.66,237.68,298.13,237.1,298.13z M237.29,297.13
		c0.24-0.01,0.42-0.1,0.42-0.36c0-0.11-0.05-0.23-0.15-0.29c-0.1-0.06-0.21-0.07-0.32-0.07h-0.58v1.33h0.16v-0.61h0.3l0.38,0.61
		h0.19L237.29,297.13z M236.82,297.01v-0.47h0.38c0.17,0,0.35,0.03,0.35,0.23c0,0.27-0.29,0.24-0.48,0.24H236.82z"/>
</g>
<g id="g10" transform="matrix(1.25,0,0,-1.25,0,98.5125)">
	<g id="g12" transform="scale(0.1,0.1)">
		<path id="path14" class="st6" d="M358.24,398.45l-10.25,44.17l-9.88-44.17l-22.21-0.03l-18.23,83.42l22.82,0l8.03-41.97
			l8.91,41.97l21.24,0l9.42-41.93l8.84,41.93h22.45l-18.93-83.4L358.24,398.45"/>
		<path id="path30" class="st6" d="M277.32,452.72c0,10.93-4.93,13.14-12.86,13.14c-8.98,0-11.98-4.12-12.47-13.94
			c-0.22-4.1-0.07-4.64-0.07-4.64l25.43-0.04C277.36,447.24,277.32,452.72,277.32,452.72z M251.84,432.15
			c0-8.27,1.36-13.38,5.68-15.45c2.42-1.03,6.85-1.78,11-1.78c8.14,0,18.73,1.22,28.03,4.9v-18.88c-11.68-3.8-21.54-4.9-30.72-4.9
			c-12.98,0-22.33,2.76-28.04,8.1c-7.27,6.72-9.7,17.92-9.7,34.98c0,15.17,1.56,25.33,6.92,32.92c5.19,7.41,14.72,11.37,29.95,11.37
			c14.37,0,22.85-3.62,27.87-10.69c5.37-7.76,6.06-18.61,6.06-29.64l-0.09-11.03l-45.87,0.11L251.84,432.15"/>
		<path id="path40" class="st6" d="M199.94,502.38l-0.03-54.99l-27.47,54.76c-12,0.22-21.92-6.95-23.36-8.04v-95.67l23.84,0
			l0.02,52.24l27.31-52.25h0.28l22.97,0v103.97L199.94,502.38"/>
	</g>
	<path id="path16" class="st6" d="M28.6,27.6h2.36v8.08H28.6C28.6,35.68,28.6,27.6,28.6,27.6z"/>
	<path id="path18" class="st6" d="M51.25,27.59h2.36v8.08h-2.36C51.25,35.67,51.25,27.59,51.25,27.59z"/>
	<path id="path20" class="st6" d="M36.33,33.07c0,1.09-0.49,1.31-1.29,1.31c-0.9,0-1.2-0.41-1.25-1.39
		c-0.02-0.41-0.01-0.46-0.01-0.46l2.54,0L36.33,33.07L36.33,33.07z M33.78,31.02c0-0.83,0.14-1.33,0.57-1.54
		c0.24-0.1,0.68-0.18,1.1-0.18c0.81,0,1.87,0.12,2.8,0.49V27.9c-1.17-0.38-2.15-0.49-3.07-0.49c-1.3,0-2.23,0.28-2.8,0.81
		c-0.73,0.67-0.97,1.79-0.97,3.49c0,1.51,0.16,2.53,0.69,3.28c0.52,0.74,1.47,1.13,3,1.13c1.44,0,2.29-0.36,2.79-1.07
		c0.54-0.77,0.61-1.86,0.61-2.96l-0.01-1.1l-4.59,0.01L33.78,31.02"/>
	<path id="path22" class="st6" d="M25.9,27.39c-2.84,0-3.61,1.1-3.61,4.36c0,3.43,0.84,4.38,3.77,4.38c0.98-0.01,1.85-0.3,2.04-0.41
		l0-2.02c-0.5,0.22-1.18,0.47-2.01,0.48c-0.82,0-1.26-0.21-1.35-0.83c-0.09-0.55-0.11-1.29-0.11-1.6c0-0.5,0.03-0.98,0.11-1.45
		c0.1-0.62,0.54-0.94,1.36-0.94c0.58,0,1.28,0.07,2,0.29l0-2C27.31,27.42,26.56,27.39,25.9,27.39"/>
	<path id="path24" class="st6" d="M28.6,36.85v-0.71h2.36v1.49C29.8,37.67,28.82,37.01,28.6,36.85"/>
	<path id="path26" class="st6" d="M51.25,36.83v-0.71h2.36v1.5C52.43,37.66,51.45,36.98,51.25,36.83"/>
	<path id="path28" class="st6" d="M43.64,36.02c-0.97,0-1.75-0.43-2.29-0.81l-0.23,0.68c-1.04-0.01-1.91-0.58-2.17-0.76v-7.54h2.34
		l-0.01,5.6c0.31,0.21,1.1,0.54,1.52,0.54c0.68,0,0.85-0.57,0.85-1.11l0-5.03l2.24,0v6.12C45.88,34.64,45.3,36.02,43.64,36.02"/>
	<path id="path32" class="st6" d="M18.14,29.67c1.09,0.04,1.2,0.64,1.2,0.9c-0.01,0.73-0.72,0.97-2.01,1.41L17.24,32
		c-1.18,0.41-2.3,0.81-2.33,2.65c-0.02,1.24,0.23,2.08,0.79,2.65c0.56,0.57,1.45,0.85,2.64,0.85c0.83,0,2.36-0.18,3.1-0.55
		c0-0.11,0-2.07,0-2.35c-0.62,0.3-1.83,0.7-2.94,0.68c-0.77-0.02-1.13-0.3-1.12-0.88c0.01-0.55,0.49-0.72,1.22-0.97
		c0.41-0.14,0.92-0.32,1.49-0.61c1.05-0.55,1.75-1.03,1.77-2.68c0.02-1.08-0.25-1.92-0.8-2.48c-0.6-0.61-1.57-0.92-2.87-0.92
		c-1.44,0-2.65,0.38-3.28,0.62c0,0.12,0,2.02,0,2.3C15.77,29.85,16.88,29.63,18.14,29.67"/>
	<path id="path34" class="st6" d="M57,27.4c-1.21,0-2.26,0.28-2.93,0.52l0,2.02c0.75-0.42,1.78-0.61,2.93-0.57
		c0.68,0.02,0.96,0.29,0.96,0.63c-0.01,0.53-0.64,0.7-1.8,1.07c-1.07,0.34-2.06,0.67-2.09,2.18c-0.02,1.37,0.37,2.87,3.07,2.87
		c0.79,0,2.16-0.16,2.78-0.47l0-2.05c-0.46,0.23-1.64,0.61-2.68,0.59c-0.68-0.01-0.89-0.24-0.89-0.62c0.01-0.6,0.97-0.55,2.35-1.19
		c0.97-0.46,1.56-0.87,1.59-2.2C60.31,28.31,59.2,27.4,57,27.4"/>
	<path id="path36" class="st6" d="M49.62,29.42c-0.99-0.03-0.86,0.81-0.86,1.39c0,0.58,0,3.06,0,3.06h1.99l0,1.81l-2,0l0,2.33
		c-1.25,0.03-2.28-0.76-2.36-0.81v-1.32l0-0.19c0,0-0.19-0.11-0.29-0.18c-0.1-0.07-0.15-0.11-0.15-0.11l0.44-1.54l-0.01-3.9
		c0-2.29,1.05-2.55,2.29-2.55c0.76,0,1.52,0.14,2.07,0.29v1.95C50.42,29.51,50.03,29.42,49.62,29.42"/>
	<path id="path38" class="st6" d="M63.96,29.39c-0.99-0.03-0.86,0.81-0.86,1.39c0,0.58,0,3.06,0,3.06h1.99l0,1.81l-2,0l0,2.33
		c-1.25,0.03-2.28-0.76-2.36-0.81v-1.32l0-0.19c0,0-0.19-0.11-0.29-0.18c-0.1-0.07-0.15-0.11-0.15-0.11l0.44-1.54l-0.01-3.9
		c0-2.29,1.05-2.55,2.29-2.55c0.76,0,1.52,0.14,2.07,0.29v1.95C64.75,29.48,64.36,29.39,63.96,29.39"/>
</g>
<g>
</g>
<g>
</g>
<g>
</g>
<g>
</g>
<g>
</g>
<g>
</g>
<g>
</g>
<g>
</g>
<g>
</g>
<g>
</g>
<g>
</g>
<g>
</g>
<g>
</g>
<g>
</g>
<g>
</g>
<g>
</g>
<g>
</g>
<g>
</g>
<g>
</g>
</svg>
