<?xml version="1.0" encoding="utf-8"?>
<!-- Generator: Adobe Illustrator 23.1.1, SVG Export Plug-In . SVG Version: 6.00 Build 0)  -->
<svg version="1.1" id="Layer_1" xmlns="http://www.w3.org/2000/svg" xmlns:xlink="http://www.w3.org/1999/xlink" x="0px" y="0px"
	 viewBox="0 0 100 100" style="enable-background:new 0 0 100 100;" xml:space="preserve">
<style type="text/css">
	.st0{display:none;}
	.st1{display:inline;fill:#FFFFFF;}
	.st2{fill:#005EB8;}
	.st3{fill-rule:evenodd;clip-rule:evenodd;fill:#D9261C;}
	.st4{display:inline;fill-rule:evenodd;clip-rule:evenodd;fill:#FFFFFF;}
	.st5{display:inline;}
	.st6{fill:#231F20;}
	.st7{display:inline;fill:#231F20;}
	.st8{fill:#FFFFFF;}
</style>
<g id="g3721" transform="matrix(0.27560986,0,0,0.27560986,0.63625548,139.7108)">
	<path id="path2339-2" d="M81.22-262.71l-11.6-27.69h7.58l7.24,18.39l7.01-18.39h7.24l-11.26,27.69H81.22z"/>
	<path id="path2341-0" d="M118.88-276.7c0-1.15-0.13-2.25-0.4-3.28c-0.26-1.04-0.67-1.93-1.21-2.68c-0.54-0.75-1.19-1.35-1.95-1.79
		c-0.77-0.45-1.67-0.67-2.7-0.67c-1.03,0-1.94,0.22-2.7,0.67c-0.77,0.44-1.42,1.03-1.95,1.79c-0.54,0.75-0.94,1.64-1.21,2.68
		c-0.27,1.04-0.4,2.13-0.4,3.28c0,1.19,0.13,2.3,0.4,3.32c0.26,1.02,0.66,1.91,1.17,2.68c0.52,0.77,1.17,1.37,1.96,1.82
		c0.78,0.44,1.69,0.66,2.73,0.66c1.03,0,1.93-0.22,2.7-0.66c0.77-0.45,1.42-1.05,1.95-1.82c0.54-0.77,0.94-1.66,1.21-2.68
		C118.75-274.4,118.88-275.51,118.88-276.7 M125.89-276.67c0,1.81-0.28,3.58-0.83,5.32c-0.56,1.74-1.38,3.3-2.48,4.68
		c-1.09,1.38-2.47,2.49-4.13,3.33c-1.67,0.84-3.61,1.26-5.83,1.26c-2.22,0-4.17-0.42-5.83-1.26c-1.67-0.84-3.05-1.95-4.14-3.33
		c-1.09-1.38-1.91-2.94-2.47-4.68c-0.55-1.74-0.83-3.51-0.83-5.32c0-1.8,0.28-3.56,0.83-5.29c0.56-1.72,1.38-3.26,2.47-4.62
		c1.09-1.36,2.48-2.45,4.14-3.27c1.66-0.82,3.6-1.24,5.83-1.24c2.22,0,4.16,0.42,5.8,1.24c1.65,0.82,3.03,1.91,4.13,3.27
		c1.12,1.36,1.95,2.9,2.5,4.62C125.61-280.22,125.89-278.47,125.89-276.67"/>
	<path id="path2343-6" d="M147.29-284.31c-1.37-0.54-2.65-0.81-3.84-0.81c-1.21,0-2.27,0.24-3.14,0.7c-0.88,0.46-1.6,1.08-2.18,1.87
		c-0.57,0.79-1,1.67-1.28,2.66c-0.29,0.98-0.43,1.99-0.43,3.03c0,1.15,0.13,2.25,0.38,3.31c0.24,1.05,0.63,1.98,1.14,2.77
		c0.51,0.79,1.16,1.42,1.94,1.9c0.78,0.47,1.71,0.72,2.78,0.72c0.88,0,1.77-0.24,2.68-0.72c0.91-0.48,1.56-1.05,1.95-1.7
		L147.29-284.31z M147.86-262.71l-0.29-2.12c-0.65,0.73-1.51,1.37-2.58,1.92c-1.07,0.56-2.33,0.84-3.78,0.84
		c-1.9,0-3.59-0.4-5.03-1.21c-1.46-0.8-2.68-1.88-3.67-3.21c-0.99-1.34-1.75-2.89-2.27-4.66c-0.51-1.76-0.77-3.6-0.77-5.52
		c0-1.8,0.26-3.56,0.79-5.29c0.54-1.72,1.35-3.26,2.43-4.62c1.09-1.36,2.45-2.45,4.1-3.27c1.64-0.82,3.57-1.24,5.78-1.24
		c1.45,0,3.02,0.27,4.7,0.8v-10.74h7.12v38.32L147.86-262.71z"/>
	<path id="path2345-7" d="M174.46-275.69c-0.77,0.04-1.56,0.11-2.37,0.2c-0.81,0.1-1.58,0.22-2.31,0.38
		c-1.55,0.31-2.61,0.83-3.21,1.58c-0.59,0.75-0.89,1.56-0.89,2.45c0,0.91,0.33,1.65,1.01,2.21c0.68,0.55,1.62,0.83,2.86,0.83
		c0.93,0,1.83-0.19,2.69-0.57c0.86-0.38,1.61-0.86,2.22-1.44L174.46-275.69z M175.03-262.73l-0.28-2.07c-0.77,0.85-1.75,1.52-2.94,2
		c-1.19,0.48-2.5,0.73-3.92,0.73c-1.19,0-2.34-0.2-3.43-0.61c-1.1-0.4-2.07-0.98-2.91-1.72c-0.84-0.75-1.53-1.66-2.04-2.75
		c-0.52-1.09-0.78-2.33-0.78-3.71c0-1.37,0.26-2.59,0.81-3.65c0.54-1.05,1.26-1.94,2.19-2.67c0.92-0.73,1.98-1.32,3.17-1.78
		c1.19-0.46,2.44-0.81,3.74-1.04c0.92-0.19,1.93-0.33,3.03-0.43c1.09-0.1,2.01-0.18,2.74-0.26v-0.4c0-1.53-0.39-2.62-1.19-3.28
		c-0.79-0.65-1.88-0.98-3.26-0.98c-0.81,0-1.58,0.1-2.31,0.29c-0.73,0.19-1.38,0.43-1.96,0.71c-0.58,0.29-1.09,0.58-1.53,0.86
		c-0.44,0.29-0.79,0.54-1.07,0.77l-2.36-4.99c0.31-0.27,0.77-0.59,1.41-0.98c0.63-0.38,1.39-0.76,2.3-1.12
		c0.9-0.36,1.91-0.67,3.04-0.92s2.35-0.38,3.65-0.38c1.53,0,2.94,0.2,4.2,0.61s2.36,1.03,3.28,1.9c0.91,0.86,1.63,1.95,2.15,3.27
		c0.52,1.32,0.77,2.91,0.77,4.79v17.79L175.03-262.73z"/>
	<path id="path2347-3" d="M203.54-294.71c-0.23-0.11-0.68-0.28-1.35-0.49c-0.68-0.21-1.56-0.31-2.68-0.31c-0.99,0-1.83,0.3-2.5,0.89
		c-0.67,0.59-1,1.56-1,2.9v1.32h5.98v5.75h-5.92v21.94h-7.13v-21.94h-3.67v-5.75h3.67v-1.49c0-1.8,0.23-3.32,0.69-4.57
		c0.46-1.24,1.1-2.26,1.92-3.04c0.82-0.79,1.79-1.37,2.9-1.73c1.12-0.36,2.32-0.54,3.63-0.54c1.72,0,3.14,0.16,4.27,0.49
		c1.13,0.33,1.79,0.54,1.98,0.66L203.54-294.71z"/>
	<path id="path2349-9" d="M222.96-276.7c0-1.15-0.14-2.25-0.4-3.28c-0.26-1.04-0.67-1.93-1.21-2.68c-0.54-0.75-1.19-1.35-1.95-1.79
		c-0.77-0.45-1.67-0.67-2.7-0.67c-1.03,0-1.94,0.22-2.7,0.67c-0.77,0.44-1.42,1.03-1.96,1.79c-0.53,0.75-0.93,1.64-1.21,2.68
		c-0.26,1.04-0.4,2.13-0.4,3.28c0,1.19,0.13,2.3,0.4,3.32c0.27,1.02,0.66,1.91,1.18,2.68c0.52,0.77,1.17,1.37,1.95,1.82
		c0.79,0.44,1.7,0.66,2.73,0.66c1.03,0,1.93-0.22,2.7-0.66c0.77-0.45,1.42-1.05,1.95-1.82c0.54-0.77,0.94-1.66,1.21-2.68
		C222.82-274.4,222.96-275.51,222.96-276.7 M229.96-276.67c0,1.81-0.28,3.58-0.84,5.32c-0.55,1.74-1.37,3.3-2.47,4.68
		c-1.09,1.38-2.47,2.49-4.13,3.33c-1.67,0.84-3.61,1.26-5.83,1.26c-2.22,0-4.17-0.42-5.83-1.26c-1.67-0.84-3.05-1.95-4.14-3.33
		c-1.09-1.38-1.91-2.94-2.47-4.68c-0.56-1.74-0.83-3.51-0.83-5.32c0-1.8,0.27-3.56,0.83-5.29c0.56-1.72,1.38-3.26,2.47-4.62
		c1.09-1.36,2.48-2.45,4.14-3.27c1.66-0.82,3.6-1.24,5.83-1.24c2.22,0,4.16,0.42,5.8,1.24c1.65,0.82,3.03,1.91,4.13,3.27
		c1.12,1.36,1.95,2.9,2.5,4.62C229.68-280.22,229.96-278.47,229.96-276.67"/>
	<path id="path2351-6" d="M252.07-262.71v-15.79c0-2.11-0.44-3.74-1.32-4.89c-0.89-1.14-2.11-1.72-3.68-1.72
		c-1.11,0-2.13,0.29-3.07,0.86c-0.94,0.57-1.76,1.21-2.45,1.9v19.64h-7.12v-27.69h6.49l0.34,2.18c1.12-0.91,2.36-1.62,3.77-2.12
		c1.39-0.5,2.8-0.75,4.22-0.75c1.46,0,2.8,0.22,4.02,0.66c1.23,0.45,2.28,1.14,3.16,2.1c0.89,0.96,1.56,2.2,2.04,3.73
		c0.47,1.53,0.72,3.37,0.72,5.52v16.37L252.07-262.71z"/>
	<path id="path2353-4" d="M281.36-279.88c-0.08-0.96-0.28-1.79-0.61-2.5c-0.33-0.71-0.73-1.28-1.21-1.72
		c-0.48-0.45-1-0.77-1.55-0.98c-0.56-0.21-1.13-0.31-1.71-0.31c-1.23,0-2.41,0.46-3.52,1.38c-1.12,0.92-1.77,2.29-1.97,4.13H281.36z
		 M270.62-274.77c0.15,2.34,0.88,4.02,2.19,5.06c1.3,1.03,3,1.55,5.07,1.55c0.96,0,1.87-0.09,2.71-0.26
		c0.84-0.17,1.6-0.39,2.25-0.66c0.66-0.27,1.21-0.54,1.67-0.8c0.46-0.27,0.8-0.52,1.04-0.75l1.9,5.81c-0.27,0.19-0.7,0.45-1.3,0.77
		c-0.59,0.33-1.33,0.63-2.21,0.92c-0.88,0.29-1.92,0.53-3.1,0.75c-1.19,0.21-2.49,0.31-3.9,0.31c-1.81,0-3.51-0.29-5.15-0.86
		c-1.62-0.58-3.05-1.47-4.27-2.68c-1.23-1.21-2.2-2.71-2.93-4.5c-0.73-1.8-1.09-3.95-1.09-6.44c0-2.34,0.33-4.41,1-6.21
		c0.67-1.8,1.59-3.31,2.75-4.54c1.17-1.22,2.53-2.16,4.08-2.82c1.55-0.65,3.21-0.98,4.97-0.98s3.39,0.29,4.89,0.86
		c1.49,0.57,2.78,1.46,3.88,2.67c1.09,1.21,1.95,2.77,2.58,4.69c0.63,1.91,0.95,4.19,0.95,6.83v1.26H270.62z"/>
</g>
<g transform="scale(3.75)" class="st0">
	<path class="st1" d="M4.03,9.52h2.54l1.56,5.29h0.02l1.07-5.29h1.92l-1.62,7.62H7l-1.6-5.27H5.39l-1.06,5.27H2.41L4.03,9.52z"/>
	<path class="st1" d="M11.9,9.52h2.04l-0.6,2.92h2.41l0.6-2.92h2.04l-1.58,7.62h-2.05l0.68-3.26h-2.4l-0.68,3.26h-2.04L11.9,9.52z"
		/>
	<path class="st1" d="M23.77,11.25c-0.52-0.24-1.09-0.36-1.67-0.35c-0.81,0-1.46,0.12-1.46,0.73c0,1.08,2.96,0.68,2.96,2.99
		c0,2.11-1.96,2.65-3.72,2.65c-0.8-0.02-1.6-0.15-2.37-0.39l0.47-1.55c0.4,0.26,1.21,0.44,1.88,0.44c0.67,0,1.63-0.12,1.63-0.91
		c0-1.22-2.96-0.76-2.96-2.92c0-1.96,1.73-2.56,3.4-2.56c0.95,0,1.82,0.1,2.34,0.34L23.77,11.25z"/>
	<rect x="-13.43" y="2.52" class="st2" width="53.43" height="21.63"/>
</g>
<g id="Illy" transform="translate(-172.90992,-237.69111)" class="st0">
	<path id="path303" class="st3" d="M202.75,267.56h40.32v40.32h-40.32V267.56z"/>
	<path id="path305" class="st4" d="M223.08,274.5c0.48,0.66,0.85,1.52,0.55,2.35c-2.23,4.45-4.1,9.03-5.92,13.65
		c-0.67,1.83-0.99,3.82-1.94,5.55c-0.12,0.19-0.35,0.47-0.57,0.42c-0.61-0.1-1.21-0.31-1.59-0.87c-1.19-2.54,0.1-5.35,0.8-7.77
		c1.52-4.24,3.2-8.41,5.38-12.39c0.47-0.67,0.88-1.44,1.59-1.94c0.22-0.12,0.54-0.09,0.78-0.05L223.08,274.5z"/>
	<path id="path307" class="st4" d="M229.54,274.9c0.35,0.36,0.67,0.74,0.81,1.18c0.09,1.02-0.17,1.8-0.54,2.61
		c-1.92,3.82-3.53,7.77-5.07,11.75c-0.74,2.06-1.3,4.2-2.27,6.18c-0.52,0.22-1.09-0.05-1.52-0.38c-0.54-0.5-1.04-1.12-1.16-1.83
		c0.29-3.91,1.57-7.42,3.03-10.85c1.37-3.2,2.87-6.37,4.97-9.24C228.5,273.84,229.02,274.57,229.54,274.9"/>
	<path id="path309" class="st4" d="M216.87,274.67c0.47,1,0.17,2.27-0.47,3.08c-0.57,0.64-1.16,1.33-1.87,1.83
		c-0.47,0.1-0.99-0.02-1.35-0.35c-0.61-0.61-0.62-1.56-0.36-2.34c0.5-1.32,1.78-2.53,3.2-2.7
		C216.37,274.24,216.72,274.34,216.87,274.67"/>
	<path id="path311" class="st4" d="M214.1,281.96c-0.16,1.56-0.78,2.96-1.21,4.43c-1.04,2.63-1.97,5.29-2.65,8.08
		c-0.22,0.66-0.38,1.37-0.85,1.92c-0.69-0.02-1.71,0.22-2.15-0.5c-1.35-2.11-0.05-4.52,0.54-6.56c0.73-2.22,1.45-4.45,2.58-6.51
		c0.54-0.87,1.33-1.97,2.49-1.92C213.41,280.99,213.89,281.47,214.1,281.96"/>
	<path id="path313" class="st4" d="M233.85,284.16c0.24,0.95-0.45,1.66-0.85,2.41c-1.11,1.4-1.82,2.98-2.77,4.45
		c-0.19,0.38-0.4,0.76-0.35,1.25c0.5,0.48,1-0.31,1.47-0.55c2.44-2.3,4.07-5.12,5.62-7.87c0.26-0.26,0.54-0.57,0.9-0.57
		c0.64,0.5,1.35,1.06,1.75,1.77c0.1,0.9-0.35,1.7-0.57,2.53c-1.28,3.32-2.98,6.7-6.16,9.03c-2.6,2.2-5.33,4.08-8.32,5.36
		c-0.45,0.05-1.04,0.12-1.37-0.23l0.03-0.12c2.32-1.42,4.46-3.25,6.63-5.12c0.42-0.5,1.06-0.97,1.32-1.56
		c-0.5,0.14-1.02,0.42-1.54,0.59c-0.59,0.1-1.37,0.47-1.9-0.02c-0.8-0.74-1.61-1.56-1.7-2.65c0.57-3.63,2.42-6.73,4.4-9.79
		c0.35-0.36,0.59-1.02,1.16-1.09C232.65,282.22,233.31,283.29,233.85,284.16"/>
	<path id="path315" class="st4" d="M237.1,298.27c0.66,0,1.19-0.53,1.19-1.19c0-0.65-0.53-1.19-1.19-1.19
		c-0.66,0-1.19,0.53-1.19,1.19C235.91,297.74,236.44,298.27,237.1,298.27z M237.1,298.13c-0.58,0-1.05-0.47-1.05-1.05
		c0-0.58,0.47-1.04,1.05-1.04c0.58,0,1.04,0.47,1.04,1.04C238.15,297.66,237.68,298.13,237.1,298.13z M237.29,297.13
		c0.24-0.01,0.42-0.1,0.42-0.36c0-0.11-0.05-0.23-0.15-0.29c-0.1-0.06-0.21-0.07-0.32-0.07h-0.58v1.33h0.16v-0.61h0.3l0.38,0.61
		h0.19L237.29,297.13z M236.82,297.01v-0.47h0.38c0.17,0,0.35,0.03,0.35,0.23c0,0.27-0.29,0.24-0.48,0.24H236.82z"/>
</g>
<g id="g10" transform="matrix(1.25,0,0,-1.25,0,98.5125)" class="st0">
	<g id="g12" transform="scale(0.1,0.1)" class="st5">
		<path id="path14" class="st6" d="M358.24,398.45l-10.25,44.17l-9.88-44.17l-22.21-0.03l-18.23,83.42l22.82,0l8.03-41.97
			l8.91,41.97l21.24,0l9.42-41.93l8.84,41.93h22.45l-18.93-83.4L358.24,398.45"/>
		<path id="path30" class="st6" d="M277.32,452.72c0,10.93-4.93,13.14-12.86,13.14c-8.98,0-11.98-4.12-12.47-13.94
			c-0.22-4.1-0.07-4.64-0.07-4.64l25.43-0.04C277.36,447.24,277.32,452.72,277.32,452.72z M251.84,432.15
			c0-8.27,1.36-13.38,5.68-15.45c2.42-1.03,6.85-1.78,11-1.78c8.14,0,18.73,1.22,28.03,4.9v-18.88c-11.68-3.8-21.54-4.9-30.72-4.9
			c-12.98,0-22.33,2.76-28.04,8.1c-7.27,6.72-9.7,17.92-9.7,34.98c0,15.17,1.56,25.33,6.92,32.92c5.19,7.41,14.72,11.37,29.95,11.37
			c14.37,0,22.85-3.62,27.87-10.69c5.37-7.76,6.06-18.61,6.06-29.64l-0.09-11.03l-45.87,0.11L251.84,432.15"/>
		<path id="path40" class="st6" d="M199.94,502.38l-0.03-54.99l-27.47,54.76c-12,0.22-21.92-6.95-23.36-8.04v-95.67l23.84,0
			l0.02,52.24l27.31-52.25h0.28l22.97,0v103.97L199.94,502.38"/>
	</g>
	<path id="path16" class="st7" d="M28.6,27.6h2.36v8.08H28.6C28.6,35.68,28.6,27.6,28.6,27.6z"/>
	<path id="path18" class="st7" d="M51.25,27.59h2.36v8.08h-2.36C51.25,35.67,51.25,27.59,51.25,27.59z"/>
	<path id="path20" class="st7" d="M36.33,33.07c0,1.09-0.49,1.31-1.29,1.31c-0.9,0-1.2-0.41-1.25-1.39
		c-0.02-0.41-0.01-0.46-0.01-0.46l2.54,0L36.33,33.07L36.33,33.07z M33.78,31.02c0-0.83,0.14-1.33,0.57-1.54
		c0.24-0.1,0.68-0.18,1.1-0.18c0.81,0,1.87,0.12,2.8,0.49V27.9c-1.17-0.38-2.15-0.49-3.07-0.49c-1.3,0-2.23,0.28-2.8,0.81
		c-0.73,0.67-0.97,1.79-0.97,3.49c0,1.51,0.16,2.53,0.69,3.28c0.52,0.74,1.47,1.13,3,1.13c1.44,0,2.29-0.36,2.79-1.07
		c0.54-0.77,0.61-1.86,0.61-2.96l-0.01-1.1l-4.59,0.01L33.78,31.02"/>
	<path id="path22" class="st7" d="M25.9,27.39c-2.84,0-3.61,1.1-3.61,4.36c0,3.43,0.84,4.38,3.77,4.38c0.98-0.01,1.85-0.3,2.04-0.41
		l0-2.02c-0.5,0.22-1.18,0.47-2.01,0.48c-0.82,0-1.26-0.21-1.35-0.83c-0.09-0.55-0.11-1.29-0.11-1.6c0-0.5,0.03-0.98,0.11-1.45
		c0.1-0.62,0.54-0.94,1.36-0.94c0.58,0,1.28,0.07,2,0.29l0-2C27.31,27.42,26.56,27.39,25.9,27.39"/>
	<path id="path24" class="st7" d="M28.6,36.85v-0.71h2.36v1.49C29.8,37.67,28.82,37.01,28.6,36.85"/>
	<path id="path26" class="st7" d="M51.25,36.83v-0.71h2.36v1.5C52.43,37.66,51.45,36.98,51.25,36.83"/>
	<path id="path28" class="st7" d="M43.64,36.02c-0.97,0-1.75-0.43-2.29-0.81l-0.23,0.68c-1.04-0.01-1.91-0.58-2.17-0.76v-7.54h2.34
		l-0.01,5.6c0.31,0.21,1.1,0.54,1.52,0.54c0.68,0,0.85-0.57,0.85-1.11l0-5.03l2.24,0v6.12C45.88,34.64,45.3,36.02,43.64,36.02"/>
	<path id="path32" class="st7" d="M18.14,29.67c1.09,0.04,1.2,0.64,1.2,0.9c-0.01,0.73-0.72,0.97-2.01,1.41L17.24,32
		c-1.18,0.41-2.3,0.81-2.33,2.65c-0.02,1.24,0.23,2.08,0.79,2.65c0.56,0.57,1.45,0.85,2.64,0.85c0.83,0,2.36-0.18,3.1-0.55
		c0-0.11,0-2.07,0-2.35c-0.62,0.3-1.83,0.7-2.94,0.68c-0.77-0.02-1.13-0.3-1.12-0.88c0.01-0.55,0.49-0.72,1.22-0.97
		c0.41-0.14,0.92-0.32,1.49-0.61c1.05-0.55,1.75-1.03,1.77-2.68c0.02-1.08-0.25-1.92-0.8-2.48c-0.6-0.61-1.57-0.92-2.87-0.92
		c-1.44,0-2.65,0.38-3.28,0.62c0,0.12,0,2.02,0,2.3C15.77,29.85,16.88,29.63,18.14,29.67"/>
	<path id="path34" class="st7" d="M57,27.4c-1.21,0-2.26,0.28-2.93,0.52l0,2.02c0.75-0.42,1.78-0.61,2.93-0.57
		c0.68,0.02,0.96,0.29,0.96,0.63c-0.01,0.53-0.64,0.7-1.8,1.07c-1.07,0.34-2.06,0.67-2.09,2.18c-0.02,1.37,0.37,2.87,3.07,2.87
		c0.79,0,2.16-0.16,2.78-0.47l0-2.05c-0.46,0.23-1.64,0.61-2.68,0.59c-0.68-0.01-0.89-0.24-0.89-0.62c0.01-0.6,0.97-0.55,2.35-1.19
		c0.97-0.46,1.56-0.87,1.59-2.2C60.31,28.31,59.2,27.4,57,27.4"/>
	<path id="path36" class="st7" d="M49.62,29.42c-0.99-0.03-0.86,0.81-0.86,1.39c0,0.58,0,3.06,0,3.06h1.99l0,1.81l-2,0l0,2.33
		c-1.25,0.03-2.28-0.76-2.36-0.81v-1.32l0-0.19c0,0-0.19-0.11-0.29-0.18c-0.1-0.07-0.15-0.11-0.15-0.11l0.44-1.54l-0.01-3.9
		c0-2.29,1.05-2.55,2.29-2.55c0.76,0,1.52,0.14,2.07,0.29v1.95C50.42,29.51,50.03,29.42,49.62,29.42"/>
	<path id="path38" class="st7" d="M63.96,29.39c-0.99-0.03-0.86,0.81-0.86,1.39c0,0.58,0,3.06,0,3.06h1.99l0,1.81l-2,0l0,2.33
		c-1.25,0.03-2.28-0.76-2.36-0.81v-1.32l0-0.19c0,0-0.19-0.11-0.29-0.18c-0.1-0.07-0.15-0.11-0.15-0.11l0.44-1.54l-0.01-3.9
		c0-2.29,1.05-2.55,2.29-2.55c0.76,0,1.52,0.14,2.07,0.29v1.95C64.75,29.48,64.36,29.39,63.96,29.39"/>
</g>
<path id="path2333-2_2_" d="M39.54,43.1c0-5.78,4.68-10.46,10.46-10.46s10.46,4.68,10.46,10.46"/>
<path id="path2333-2" d="M60.46,43.1c0,5.78-4.68,10.46-10.46,10.46S39.54,48.87,39.54,43.1"/>
<path id="path2337-8" class="st8" d="M50.12,48.93c-2.87,0.01-5.86-2.44-5.88-6.38c-0.01-2.6,1.4-5.11,3.19-6.6
	c1.75-1.45,4.15-2.38,6.33-2.39c0.28,0,0.57,0.02,0.75,0.08c-1.9,0.39-3.42,2.17-3.41,4.17c0,0.07,0.01,0.14,0.01,0.17
	c3.18,0.78,4.63,2.7,4.64,5.36C55.77,46.01,53.67,48.92,50.12,48.93"/>
<g>
</g>
<g>
</g>
<g>
</g>
<g>
</g>
<g>
</g>
<g>
</g>
<g>
</g>
<g>
</g>
<g>
</g>
<g>
</g>
<g>
</g>
<g>
</g>
<g>
</g>
<g>
</g>
<g>
</g>
<g>
</g>
<g>
</g>
<g>
</g>
<g>
</g>
</svg>
